<?xml version="1.0" standalone="no"?>
<!DOCTYPE svg PUBLIC "-//W3C//DTD SVG 20010904//EN"
 "http://www.w3.org/TR/2001/REC-SVG-20010904/DTD/svg10.dtd">
<svg version="1.0" xmlns="http://www.w3.org/2000/svg"
 width="494.000000pt" height="505.000000pt" viewBox="0 0 494.000000 505.000000"
 preserveAspectRatio="xMidYMid meet">
<metadata>
Created by potrace 1.16, written by Peter Selinger 2001-2019
</metadata>
<g transform="translate(0.000000,505.000000) scale(0.100000,-0.100000)"
fill="#000000" stroke="none">
<path d="M2355 4619 c-236 -23 -422 -68 -620 -150 -436 -182 -739 -427 -977
-788 -80 -121 -179 -315 -231 -451 -65 -170 -136 -455 -124 -500 3 -11 2 -18
-2 -15 -18 10 -28 -334 -15 -463 4 -34 10 -60 13 -58 3 2 6 -21 7 -53 2 -125
97 -438 194 -636 129 -264 276 -460 476 -637 185 -163 330 -259 546 -363 169
-80 304 -126 493 -165 132 -28 176 -32 365 -37 304 -8 529 22 770 104 113 38
323 134 405 185 300 190 574 480 757 803 101 179 161 334 212 550 15 61 33
135 41 166 21 76 31 415 17 544 -84 755 -524 1414 -1162 1739 -272 139 -491
200 -804 226 -146 11 -231 11 -361 -1z m-24 -849 c10 0 19 -4 19 -9 0 -11
-102 -20 -114 -10 -5 4 3 11 18 15 14 3 26 10 26 14 0 11 -84 -1 -88 -12 -5
-11 -57 -38 -76 -38 -24 0 -44 27 -39 54 9 46 35 59 128 61 47 1 88 5 93 9 4
4 8 -13 10 -38 3 -38 7 -46 23 -46z m-26 -475 c26 -25 31 -57 16 -98 -24 -61
-84 -77 -120 -31 -36 45 -21 116 29 141 36 18 48 16 75 -12z m389 3 c9 -13 16
-43 16 -69 0 -39 -5 -51 -26 -68 -43 -34 -114 -2 -114 50 0 11 -7 19 -17 20
-16 1 -16 2 -1 6 9 2 19 15 22 28 9 36 34 55 71 55 24 0 39 -7 49 -22z m-564
-17 c31 -58 -12 -151 -69 -151 -36 0 -64 32 -64 72 l0 31 -21 -26 c-12 -15
-31 -40 -43 -56 -29 -37 -57 -44 -85 -22 -41 34 -18 128 37 153 32 14 53 4 69
-33 l13 -32 39 42 c32 34 46 41 76 41 27 0 40 -6 48 -19z m-355 -31 c51 -57
-39 -192 -93 -138 -30 30 -2 131 41 148 31 12 32 12 52 -10z m498 -311 c25
-11 47 -47 47 -74 0 -8 4 -15 9 -15 11 0 -21 -65 -45 -91 -25 -28 -68 -24 -93
7 -15 19 -21 41 -21 76 0 41 5 54 29 79 33 32 39 34 74 18z m422 -14 c19 -18
25 -35 25 -70 0 -104 -68 -151 -124 -84 -30 35 -35 93 -11 139 24 47 72 54
110 15z m390 -11 c20 -21 25 -38 25 -78 0 -67 -20 -96 -66 -96 -28 0 -38 6
-54 33 -60 97 23 219 95 141z m-1171 -6 c21 -29 20 -91 0 -134 -9 -19 -19 -34
-23 -34 -3 0 -16 -3 -28 -6 -31 -9 -63 27 -63 72 0 32 -2 35 -22 30 l-23 -6
22 11 c12 6 27 24 34 40 21 52 76 66 103 27z m1497 2 c26 -15 49 -62 49 -105
0 -45 -37 -87 -69 -78 -48 12 -72 133 -35 174 20 22 28 23 55 9z m-1833 -22
c17 -17 15 -103 -3 -137 -18 -35 -55 -47 -72 -24 -7 9 -13 40 -13 69 0 77 50
130 88 92z m2009 -15 c10 -16 22 -31 28 -35 6 -5 6 -8 -2 -8 -8 0 -11 -10 -7
-29 3 -16 1 -39 -6 -51 -10 -18 -9 -24 1 -31 17 -10 -30 -13 -56 -3 -38 15
-63 142 -33 172 21 21 56 14 75 -15z m-1485 -383 c40 -74 4 -162 -72 -176 -26
-4 -31 -3 -20 5 10 7 11 11 3 11 -16 0 -43 52 -43 82 0 19 -2 20 -10 8 -5 -8
-10 -25 -10 -38 0 -14 -4 -21 -11 -16 -6 3 -9 19 -6 34 7 32 61 116 84 129 27
15 65 -3 85 -39z m571 39 c13 -6 31 -24 41 -40 15 -26 20 -28 39 -17 12 6 28
20 36 30 7 11 24 23 37 28 90 35 143 -122 65 -192 -29 -26 -90 -40 -76 -18 4
6 -5 9 -21 8 -15 -2 -29 2 -31 8 -2 6 -9 19 -17 29 -11 16 -15 15 -43 -14 -38
-38 -75 -40 -108 -7 l-24 24 -3 -27 c-2 -15 -7 -1 -12 37 -7 51 -11 62 -27 62
-10 0 -19 5 -19 10 0 9 17 14 47 13 7 0 15 8 18 18 6 19 51 59 66 59 4 0 19
-5 32 -11z m-413 -29 c0 -22 5 -30 18 -30 9 0 24 -5 32 -11 12 -8 12 -10 -5
-8 -42 3 -45 0 -45 -45 0 -41 2 -45 28 -48 18 -2 26 -8 24 -18 -3 -12 -1 -12
9 -3 6 7 15 29 19 50 l8 38 1 -37 c1 -26 -6 -45 -20 -59 -20 -20 -36 -20 -133
-3 -32 6 -44 24 -19 30 14 4 23 16 27 37 3 18 8 47 12 65 6 31 5 33 -17 30
-33 -4 -32 24 1 33 51 14 60 11 60 -21z m810 -2 c0 -17 8 -41 19 -52 10 -12
21 -42 24 -67 6 -46 6 -46 -31 -58 -68 -22 -121 12 -122 78 0 27 35 71 57 71
7 0 13 4 13 9 0 4 -11 6 -25 3 -18 -3 -25 0 -25 12 0 18 31 34 68 35 18 1 22
-4 22 -31z m218 2 c10 -18 25 -30 37 -30 12 0 27 12 37 30 46 80 134 -5 107
-103 -13 -47 -35 -69 -68 -66 -14 2 -36 -2 -48 -9 -12 -7 -30 -12 -40 -12 -11
1 -6 6 15 15 35 16 37 18 22 46 -14 26 -26 24 -53 -7 -32 -38 -64 -48 -93 -29
-22 14 -46 75 -39 98 2 7 6 24 9 39 8 37 32 58 67 58 23 0 34 -7 47 -30z m312
8 c38 -41 19 -178 -25 -178 -30 0 -40 10 -65 62 l-21 46 20 40 c29 57 57 66
91 30z m-2200 -28 l0 -40 25 16 c17 11 36 14 55 10 35 -6 41 9 8 18 -23 6 -23
7 -4 21 11 8 28 15 38 15 15 0 18 -9 18 -59 0 -68 6 -91 26 -91 8 0 14 -7 14
-15 0 -9 -9 -15 -23 -15 -13 0 -32 -7 -43 -15 -10 -8 -30 -14 -44 -14 -23 1
-21 2 19 15 11 4 10 8 -5 19 -18 14 -18 15 4 21 17 5 22 14 22 40 0 40 -26 59
-63 45 -38 -15 -52 -73 -20 -85 28 -11 -1 -28 -42 -24 -37 3 -64 28 -31 28 12
0 16 10 16 38 0 20 3 48 7 61 5 20 3 23 -10 18 -23 -9 -31 10 -10 22 33 19 43
13 43 -29z m2670 1 c0 -27 1 -28 34 -17 19 6 30 14 24 17 -12 8 -2 29 13 29 5
0 12 -8 16 -17 13 -41 46 -104 51 -99 5 5 7 23 10 90 2 25 4 27 18 15 10 -8
12 -15 5 -17 -14 -5 -15 -92 -1 -92 6 0 10 -4 10 -10 0 -5 -9 -10 -21 -10 -11
0 -33 -13 -47 -30 -17 -20 -35 -30 -52 -29 -22 2 -22 2 -4 6 12 2 30 13 40 24
17 18 16 19 -14 19 -22 0 -32 5 -32 15 0 8 5 15 10 15 6 0 10 14 10 31 0 27
-3 30 -26 27 -37 -4 -53 -31 -36 -59 12 -18 12 -23 0 -30 -7 -5 -18 -9 -25 -9
-17 0 -29 23 -15 28 7 2 12 24 12 52 0 28 -5 50 -12 52 -15 5 -1 28 18 28 9 0
14 -10 14 -29z m86 -271 c13 -13 0 -105 -17 -126 -21 -25 -34 -9 -39 47 -5 49
-7 51 -14 24 -15 -61 -35 -95 -56 -95 -18 0 -20 7 -20 54 0 39 5 60 20 77 18
22 21 23 33 7 12 -16 15 -16 43 3 34 22 37 22 50 9z m-542 -62 c29 -42 10
-134 -32 -157 -26 -14 -28 -14 -46 5 -23 22 -21 101 4 142 23 38 52 42 74 10z
m-1895 -12 c31 -33 40 -106 17 -141 -39 -59 -106 -6 -106 84 0 75 45 104 89
57z m1576 -2 c9 -9 19 -29 22 -45 6 -32 14 -35 46 -17 20 10 21 10 8 -5 -7
-10 -21 -17 -30 -17 -9 -1 -25 -19 -36 -43 -36 -77 -106 -72 -121 9 -16 86 61
168 111 118z m-971 -25 c30 -35 35 -93 11 -138 -25 -50 -64 -54 -106 -12 -24
25 -29 37 -29 81 0 92 72 132 124 69z m798 14 c36 -32 16 -160 -27 -177 -63
-24 -100 17 -93 100 3 33 12 62 23 74 22 24 71 26 97 3z m306 -345 c17 -17 15
-85 -5 -114 -52 -80 -127 -28 -92 63 21 57 67 81 97 51z m-1513 -25 c59 -59
38 -164 -29 -147 -48 12 -81 97 -57 143 14 26 62 28 86 4z m995 -23 c24 -24
27 -95 5 -127 -8 -12 -29 -24 -46 -28 -74 -16 -109 87 -50 146 34 34 63 37 91
9z m-377 -22 c24 -32 25 -80 2 -114 -21 -33 -87 -34 -109 -2 -23 33 -21 103 5
129 28 28 76 22 102 -13z m198 0 c22 -36 20 -75 -6 -115 -12 -18 -25 -23 -55
-23 -47 0 -70 26 -70 81 0 85 89 123 131 57z m-203 -318 c44 -41 17 -120 -40
-120 -44 0 -68 25 -68 71 0 63 63 91 108 49z"/>
</g>
</svg>
